<mxfile host="app.diagrams.net" modified="2024-04-16T23:34:14.121Z" agent="Mozilla/5.0 (Windows NT 10.0; Win64; x64) AppleWebKit/537.36 (KHTML, like Gecko) Chrome/123.0.0.0 Safari/537.36" etag="4PiLO8uuVqMSo6An79xq" version="24.2.5" type="device">
  <diagram name="PÃ¡gina-1" id="UsVAZyYvLYRlqgus2QLm">
    <mxGraphModel dx="2577" dy="937" grid="1" gridSize="10" guides="1" tooltips="1" connect="1" arrows="1" fold="1" page="1" pageScale="1" pageWidth="827" pageHeight="1169" math="0" shadow="0">
      <root>
        <mxCell id="0" />
        <mxCell id="1" parent="0" />
        <mxCell id="pFLpe3r71nQC9OKo6Jve-25" style="edgeStyle=orthogonalEdgeStyle;rounded=0;orthogonalLoop=1;jettySize=auto;html=1;" parent="1" source="pFLpe3r71nQC9OKo6Jve-2" target="pFLpe3r71nQC9OKo6Jve-10" edge="1">
          <mxGeometry relative="1" as="geometry" />
        </mxCell>
        <mxCell id="pFLpe3r71nQC9OKo6Jve-26" style="edgeStyle=orthogonalEdgeStyle;rounded=0;orthogonalLoop=1;jettySize=auto;html=1;entryX=1;entryY=0.5;entryDx=0;entryDy=0;exitX=0.25;exitY=1;exitDx=0;exitDy=0;" parent="1" source="pFLpe3r71nQC9OKo6Jve-2" target="pFLpe3r71nQC9OKo6Jve-15" edge="1">
          <mxGeometry relative="1" as="geometry" />
        </mxCell>
        <mxCell id="pFLpe3r71nQC9OKo6Jve-27" style="edgeStyle=orthogonalEdgeStyle;rounded=0;orthogonalLoop=1;jettySize=auto;html=1;entryX=1;entryY=0.5;entryDx=0;entryDy=0;" parent="1" source="pFLpe3r71nQC9OKo6Jve-2" target="pFLpe3r71nQC9OKo6Jve-7" edge="1">
          <mxGeometry relative="1" as="geometry" />
        </mxCell>
        <mxCell id="pFLpe3r71nQC9OKo6Jve-30" style="edgeStyle=orthogonalEdgeStyle;rounded=0;orthogonalLoop=1;jettySize=auto;html=1;exitX=0.5;exitY=0;exitDx=0;exitDy=0;entryX=1;entryY=0.5;entryDx=0;entryDy=0;" parent="1" source="pFLpe3r71nQC9OKo6Jve-2" target="pFLpe3r71nQC9OKo6Jve-11" edge="1">
          <mxGeometry relative="1" as="geometry" />
        </mxCell>
        <mxCell id="pFLpe3r71nQC9OKo6Jve-68" value="" style="edgeStyle=orthogonalEdgeStyle;rounded=0;orthogonalLoop=1;jettySize=auto;html=1;" parent="1" source="pFLpe3r71nQC9OKo6Jve-2" target="pFLpe3r71nQC9OKo6Jve-64" edge="1">
          <mxGeometry relative="1" as="geometry" />
        </mxCell>
        <mxCell id="pFLpe3r71nQC9OKo6Jve-79" style="edgeStyle=orthogonalEdgeStyle;rounded=0;orthogonalLoop=1;jettySize=auto;html=1;exitX=1;exitY=0;exitDx=0;exitDy=0;entryX=0;entryY=1;entryDx=0;entryDy=0;" parent="1" source="pFLpe3r71nQC9OKo6Jve-2" edge="1">
          <mxGeometry relative="1" as="geometry">
            <mxPoint x="-434.6" y="290" as="sourcePoint" />
            <mxPoint x="-439.95533905932746" y="194.14213562373118" as="targetPoint" />
          </mxGeometry>
        </mxCell>
        <mxCell id="pFLpe3r71nQC9OKo6Jve-80" style="edgeStyle=orthogonalEdgeStyle;rounded=0;orthogonalLoop=1;jettySize=auto;html=1;exitX=0.75;exitY=1;exitDx=0;exitDy=0;" parent="1" source="pFLpe3r71nQC9OKo6Jve-2" target="pFLpe3r71nQC9OKo6Jve-81" edge="1">
          <mxGeometry relative="1" as="geometry">
            <mxPoint x="-470" y="410" as="targetPoint" />
          </mxGeometry>
        </mxCell>
        <mxCell id="pFLpe3r71nQC9OKo6Jve-2" value="&lt;b&gt;&lt;font style=&quot;font-size: 17px;&quot;&gt;pokemon&lt;/font&gt;&lt;/b&gt;" style="rounded=1;whiteSpace=wrap;html=1;" parent="1" vertex="1">
          <mxGeometry x="-560" y="290" width="120" height="40" as="geometry" />
        </mxCell>
        <mxCell id="pFLpe3r71nQC9OKo6Jve-35" style="edgeStyle=orthogonalEdgeStyle;rounded=0;orthogonalLoop=1;jettySize=auto;html=1;exitX=0.75;exitY=1;exitDx=0;exitDy=0;entryX=0;entryY=0.5;entryDx=0;entryDy=0;" parent="1" source="pFLpe3r71nQC9OKo6Jve-3" target="pFLpe3r71nQC9OKo6Jve-33" edge="1">
          <mxGeometry relative="1" as="geometry" />
        </mxCell>
        <mxCell id="pFLpe3r71nQC9OKo6Jve-36" style="edgeStyle=orthogonalEdgeStyle;rounded=0;orthogonalLoop=1;jettySize=auto;html=1;exitX=1;exitY=0.5;exitDx=0;exitDy=0;" parent="1" source="pFLpe3r71nQC9OKo6Jve-3" edge="1">
          <mxGeometry relative="1" as="geometry">
            <mxPoint x="469" y="310" as="targetPoint" />
          </mxGeometry>
        </mxCell>
        <mxCell id="pFLpe3r71nQC9OKo6Jve-3" value="&lt;span style=&quot;font-size: 17px;&quot;&gt;&lt;b&gt;habilidad_pokemon&lt;/b&gt;&lt;/span&gt;" style="rounded=1;whiteSpace=wrap;html=1;" parent="1" vertex="1">
          <mxGeometry x="259" y="290" width="170" height="40" as="geometry" />
        </mxCell>
        <mxCell id="pFLpe3r71nQC9OKo6Jve-44" style="edgeStyle=orthogonalEdgeStyle;rounded=0;orthogonalLoop=1;jettySize=auto;html=1;" parent="1" source="pFLpe3r71nQC9OKo6Jve-4" edge="1" target="pFLpe3r71nQC9OKo6Jve-50">
          <mxGeometry relative="1" as="geometry">
            <mxPoint x="52" y="325" as="targetPoint" />
          </mxGeometry>
        </mxCell>
        <mxCell id="pFLpe3r71nQC9OKo6Jve-61" style="edgeStyle=orthogonalEdgeStyle;rounded=0;orthogonalLoop=1;jettySize=auto;html=1;exitX=0.75;exitY=1;exitDx=0;exitDy=0;entryX=0.5;entryY=0;entryDx=0;entryDy=0;" parent="1" edge="1">
          <mxGeometry relative="1" as="geometry">
            <mxPoint x="-160" y="325" as="sourcePoint" />
            <mxPoint x="-107.5" y="380" as="targetPoint" />
          </mxGeometry>
        </mxCell>
        <mxCell id="pFLpe3r71nQC9OKo6Jve-63" style="edgeStyle=orthogonalEdgeStyle;rounded=0;orthogonalLoop=1;jettySize=auto;html=1;exitX=0.211;exitY=0.95;exitDx=0;exitDy=0;exitPerimeter=0;" parent="1" edge="1">
          <mxGeometry relative="1" as="geometry">
            <mxPoint x="-164.0800000000001" y="328" as="sourcePoint" />
            <mxPoint x="-205.95" y="400" as="targetPoint" />
          </mxGeometry>
        </mxCell>
        <mxCell id="pFLpe3r71nQC9OKo6Jve-4" value="&lt;span style=&quot;font-size: 17px;&quot;&gt;&lt;b&gt;resumen_habilidad&lt;/b&gt;&lt;/span&gt;" style="rounded=1;whiteSpace=wrap;html=1;" parent="1" vertex="1">
          <mxGeometry x="-179" y="290" width="170" height="40" as="geometry" />
        </mxCell>
        <mxCell id="pFLpe3r71nQC9OKo6Jve-7" value="Defensa" style="ellipse;whiteSpace=wrap;html=1;align=center;" parent="1" vertex="1">
          <mxGeometry x="-660" y="380" width="100" height="40" as="geometry" />
        </mxCell>
        <mxCell id="pFLpe3r71nQC9OKo6Jve-10" value="Puntos Vida" style="ellipse;whiteSpace=wrap;html=1;align=center;" parent="1" vertex="1">
          <mxGeometry x="-720" y="290" width="100" height="40" as="geometry" />
        </mxCell>
        <mxCell id="pFLpe3r71nQC9OKo6Jve-11" value="Nombre" style="ellipse;whiteSpace=wrap;html=1;align=center;" parent="1" vertex="1">
          <mxGeometry x="-660" y="200" width="100" height="40" as="geometry" />
        </mxCell>
        <mxCell id="pFLpe3r71nQC9OKo6Jve-15" value="Puntos Ataque" style="ellipse;whiteSpace=wrap;html=1;align=center;" parent="1" vertex="1">
          <mxGeometry x="-700" y="330" width="100" height="40" as="geometry" />
        </mxCell>
        <mxCell id="pFLpe3r71nQC9OKo6Jve-18" value="Tipo" style="ellipse;whiteSpace=wrap;html=1;align=center;" parent="1" vertex="1">
          <mxGeometry x="-700" y="250" width="100" height="40" as="geometry" />
        </mxCell>
        <mxCell id="pFLpe3r71nQC9OKo6Jve-20" value="Estatura" style="ellipse;whiteSpace=wrap;html=1;align=center;" parent="1" vertex="1">
          <mxGeometry x="-460" y="160" width="100" height="40" as="geometry" />
        </mxCell>
        <mxCell id="pFLpe3r71nQC9OKo6Jve-21" value="&lt;b&gt;ID Pokemon&lt;/b&gt;" style="ellipse;whiteSpace=wrap;html=1;align=center;" parent="1" vertex="1">
          <mxGeometry x="-590" y="170" width="100" height="40" as="geometry" />
        </mxCell>
        <mxCell id="pFLpe3r71nQC9OKo6Jve-22" style="edgeStyle=orthogonalEdgeStyle;rounded=0;orthogonalLoop=1;jettySize=auto;html=1;entryX=1;entryY=0.5;entryDx=0;entryDy=0;exitX=0.75;exitY=0;exitDx=0;exitDy=0;" parent="1" source="pFLpe3r71nQC9OKo6Jve-2" target="pFLpe3r71nQC9OKo6Jve-21" edge="1">
          <mxGeometry relative="1" as="geometry">
            <mxPoint x="-528" y="270" as="sourcePoint" />
          </mxGeometry>
        </mxCell>
        <mxCell id="pFLpe3r71nQC9OKo6Jve-31" style="edgeStyle=orthogonalEdgeStyle;rounded=0;orthogonalLoop=1;jettySize=auto;html=1;exitX=0.25;exitY=0;exitDx=0;exitDy=0;entryX=0.94;entryY=0.26;entryDx=0;entryDy=0;entryPerimeter=0;" parent="1" source="pFLpe3r71nQC9OKo6Jve-2" target="pFLpe3r71nQC9OKo6Jve-18" edge="1">
          <mxGeometry relative="1" as="geometry" />
        </mxCell>
        <mxCell id="pFLpe3r71nQC9OKo6Jve-33" value="Nombre Habilidad" style="ellipse;whiteSpace=wrap;html=1;align=center;" parent="1" vertex="1">
          <mxGeometry x="409" y="350" width="110" height="40" as="geometry" />
        </mxCell>
        <mxCell id="pFLpe3r71nQC9OKo6Jve-37" value="&lt;b&gt;ID Habilidad&lt;/b&gt;" style="ellipse;whiteSpace=wrap;html=1;align=center;" parent="1" vertex="1">
          <mxGeometry x="469" y="290" width="100" height="40" as="geometry" />
        </mxCell>
        <mxCell id="pFLpe3r71nQC9OKo6Jve-48" value="&lt;u&gt;&lt;i&gt;ID Habilidad&lt;/i&gt;&lt;/u&gt;" style="ellipse;whiteSpace=wrap;html=1;align=center;" parent="1" vertex="1">
          <mxGeometry x="-260" y="400" width="110" height="40" as="geometry" />
        </mxCell>
        <mxCell id="pFLpe3r71nQC9OKo6Jve-49" value="&lt;u&gt;&lt;i&gt;ID Pokemon&lt;/i&gt;&lt;/u&gt;" style="ellipse;whiteSpace=wrap;html=1;align=center;" parent="1" vertex="1">
          <mxGeometry x="-150" y="380" width="110" height="40" as="geometry" />
        </mxCell>
        <mxCell id="pFLpe3r71nQC9OKo6Jve-50" value="&lt;b&gt;ID info&lt;/b&gt;" style="ellipse;whiteSpace=wrap;html=1;align=center;" parent="1" vertex="1">
          <mxGeometry x="-150" y="200" width="110" height="40" as="geometry" />
        </mxCell>
        <mxCell id="pFLpe3r71nQC9OKo6Jve-64" value="&lt;span style=&quot;font-size: 19px;&quot;&gt;&lt;b&gt;TENER&lt;/b&gt;&lt;/span&gt;" style="rhombus;whiteSpace=wrap;html=1;rounded=1;" parent="1" vertex="1">
          <mxGeometry x="-370" y="270" width="110" height="80" as="geometry" />
        </mxCell>
        <mxCell id="pFLpe3r71nQC9OKo6Jve-81" value="&lt;span style=&quot;font-size: 14px;&quot;&gt;&lt;b&gt;PUEDE&lt;/b&gt;&lt;/span&gt;" style="rhombus;whiteSpace=wrap;html=1;" parent="1" vertex="1">
          <mxGeometry x="-510" y="440" width="80" height="80" as="geometry" />
        </mxCell>
        <mxCell id="9wfqTfTEuivhao0ISB7A-1" value="" style="endArrow=classic;html=1;rounded=0;" edge="1" parent="1">
          <mxGeometry width="50" height="50" relative="1" as="geometry">
            <mxPoint x="259" y="309.40999999999997" as="sourcePoint" />
            <mxPoint x="169" y="309.40999999999997" as="targetPoint" />
          </mxGeometry>
        </mxCell>
        <mxCell id="9wfqTfTEuivhao0ISB7A-2" value="&lt;b&gt;&lt;font style=&quot;font-size: 15px;&quot;&gt;1&lt;/font&gt;&lt;/b&gt;" style="text;html=1;align=center;verticalAlign=middle;resizable=0;points=[];autosize=1;strokeColor=none;fillColor=none;" vertex="1" parent="1">
          <mxGeometry x="-410" y="270" width="30" height="30" as="geometry" />
        </mxCell>
        <mxCell id="9wfqTfTEuivhao0ISB7A-3" value="&lt;b&gt;&lt;font style=&quot;font-size: 15px;&quot;&gt;1&lt;/font&gt;&lt;/b&gt;" style="text;html=1;align=center;verticalAlign=middle;resizable=0;points=[];autosize=1;strokeColor=none;fillColor=none;" vertex="1" parent="1">
          <mxGeometry x="-250" y="270" width="30" height="30" as="geometry" />
        </mxCell>
        <mxCell id="9wfqTfTEuivhao0ISB7A-4" value="&lt;span style=&quot;font-size: 19px;&quot;&gt;&lt;b&gt;ESTAR&lt;/b&gt;&lt;/span&gt;" style="rhombus;whiteSpace=wrap;html=1;rounded=1;" vertex="1" parent="1">
          <mxGeometry x="60" y="270" width="110" height="80" as="geometry" />
        </mxCell>
        <mxCell id="9wfqTfTEuivhao0ISB7A-5" value="" style="edgeStyle=orthogonalEdgeStyle;rounded=0;orthogonalLoop=1;jettySize=auto;html=1;" edge="1" parent="1">
          <mxGeometry relative="1" as="geometry">
            <mxPoint x="-9" y="309.71" as="sourcePoint" />
            <mxPoint x="61" y="309.71" as="targetPoint" />
          </mxGeometry>
        </mxCell>
        <mxCell id="9wfqTfTEuivhao0ISB7A-7" value="" style="endArrow=classic;html=1;rounded=0;" edge="1" parent="1">
          <mxGeometry width="50" height="50" relative="1" as="geometry">
            <mxPoint x="-180" y="310" as="sourcePoint" />
            <mxPoint x="-260" y="309.52" as="targetPoint" />
          </mxGeometry>
        </mxCell>
        <mxCell id="9wfqTfTEuivhao0ISB7A-8" value="&lt;b&gt;&lt;font style=&quot;font-size: 15px;&quot;&gt;1&lt;/font&gt;&lt;/b&gt;" style="text;html=1;align=center;verticalAlign=middle;resizable=0;points=[];autosize=1;strokeColor=none;fillColor=none;" vertex="1" parent="1">
          <mxGeometry x="10" y="270" width="30" height="30" as="geometry" />
        </mxCell>
        <mxCell id="9wfqTfTEuivhao0ISB7A-9" value="&lt;b&gt;&lt;font style=&quot;font-size: 15px;&quot;&gt;1&lt;/font&gt;&lt;/b&gt;" style="text;html=1;align=center;verticalAlign=middle;resizable=0;points=[];autosize=1;strokeColor=none;fillColor=none;" vertex="1" parent="1">
          <mxGeometry x="190" y="270" width="30" height="30" as="geometry" />
        </mxCell>
      </root>
    </mxGraphModel>
  </diagram>
</mxfile>
